<?xml version="1.0" encoding="utf-8"?>
<!-- Generator: Adobe Illustrator 22.1.0, SVG Export Plug-In . SVG Version: 6.00 Build 0)  -->
<svg version="1.1" id="Layer_1" xmlns="http://www.w3.org/2000/svg" xmlns:xlink="http://www.w3.org/1999/xlink" x="0px" y="0px"
	 viewBox="0 0 106.2 86" style="enable-background:new 0 0 106.2 86;" xml:space="preserve">
<style type="text/css">
	.st0{opacity:0.18;enable-background:new    ;}
	.st1{opacity:0.5;fill:#FFFFFF;}
</style>
<path class="st0" d="M97.7,85.8h-83c-4.4,0-8-3.6-8-8c0,0,0.8-19.8,0-26.1s-5.4-8.8-5.4-8.8s5.2-0.2,5.4-10.5
	c0.1-10.3,0-23.8,0-23.8c0-4.4,3.6-8,8-8h83c4.4,0,8,3.6,8,8v69.2C105.7,82.2,102.1,85.8,97.7,85.8z"/>
<path class="st1" d="M5.4,25.2c0,0,0-9.7,0-12.9s0-12.6,9.8-12.2l0.3,0.5c0,0-4.3-0.2-6,2.7s-2,6-2,11.2s0,10,0,14.7
	s0.1,11.5-5.3,13.5l-0.6,0.2l0.7,0.2c0,0,2.9,0.8,4.1,4s1,8.3,1,8.3s0,15.4,0,17s0,8.8,3,11.3s4.7,1.7,4.7,1.7l-0.2,0.5
	c0,0-4.4,0.5-7.1-2.5S5.1,73.1,5.1,70.3S5.4,57,5.4,54s-0.1-7.9-2.9-9.6S0,43.2,0,43.2v-0.6c0,0,3.1-0.9,3.9-2.6s1.3-5.9,1.3-9.4
	S5.4,25.2,5.4,25.2z"/>
</svg>
