<?xml version="1.0" encoding="utf-8"?>
<!-- Generator: Adobe Illustrator 21.1.0, SVG Export Plug-In . SVG Version: 6.00 Build 0)  -->
<svg version="1.1" id="Layer_1" xmlns="http://www.w3.org/2000/svg" xmlns:xlink="http://www.w3.org/1999/xlink" x="0px" y="0px"
	 viewBox="0 0 50 50" style="enable-background:new 0 0 50 50;" xml:space="preserve">
<style type="text/css">
	.st0{fill:#ff3333;}
</style>
<path class="st0" d="M42.6,4.7H7.8c-1.7,0-3.2,1.4-3.2,3.2v34.8c0,1.7,1.4,3.2,3.2,3.2H23V29.4h-5.6V23H23v-4.7
	c0-5.5,3.4-8.5,8.3-8.5c2.4,0,4.4,0.2,5,0.3v5.8h-3.4c-2.7,0-3.2,1.2-3.2,3.1v4.1h6.4l-0.8,6.4h-5.5v16.3h12.8
	c1.7,0,3.2-1.4,3.2-3.2V7.8C45.8,6.1,44.3,4.7,42.6,4.7z"/>
</svg>
