<?xml version="1.0" encoding="utf-8"?>
<!-- Generator: Adobe Illustrator 21.1.0, SVG Export Plug-In . SVG Version: 6.00 Build 0)  -->
<svg version="1.1" id="Layer_1" xmlns="http://www.w3.org/2000/svg" xmlns:xlink="http://www.w3.org/1999/xlink" x="0px" y="0px"
	 viewBox="0 0 50 50" style="enable-background:new 0 0 50 50;" xml:space="preserve">
<style type="text/css">
	.st0{fill:#ff3333;}
</style>
<g>
	<path class="st0" d="M35.7,3.7H15C8.8,3.7,3.8,8.7,3.8,14.8v20.3c0,6.2,5.1,11.2,11.2,11.2h20.8C42,46.3,47,41.3,47,35.2V14.8
		C46.9,8.7,41.9,3.7,35.7,3.7z M43,34.7c0,4.4-3.6,7.9-7.9,7.9H15.3c-4.4,0-7.9-3.6-7.9-7.9V15.6c0-4.4,3.6-7.9,7.9-7.9H35
		c4.4,0,7.9,3.6,7.9,7.9v19.1H43z"/>
	<path class="st0" d="M25.4,14.1c-6,0-11,4.9-11,11c0,6,4.9,11,11,11c6,0,11-4.9,11-11C36.2,19,31.4,14.1,25.4,14.1z M25.4,32.4
		c-4.1,0-7.4-3.4-7.4-7.4s3.4-7.4,7.4-7.4s7.4,3.4,7.4,7.4S29.4,32.4,25.4,32.4z"/>
	<circle class="st0" cx="36.9" cy="13.5" r="2.5"/>
</g>
</svg>
